<?xml version="1.0" standalone="no"?>
<!DOCTYPE svg PUBLIC "-//W3C//DTD SVG 20010904//EN"
 "http://www.w3.org/TR/2001/REC-SVG-20010904/DTD/svg10.dtd">
<svg version="1.0" xmlns="http://www.w3.org/2000/svg"
 width="2560.000000pt" height="2560.000000pt" viewBox="0 0 2560.000000 2560.000000"
 preserveAspectRatio="xMidYMid meet">
<metadata>
Created by potrace 1.14, written by Peter Selinger 2001-2017
</metadata>
<g transform="translate(0.000000,2560.000000) scale(0.100000,-0.100000)"
fill="#000000" stroke="none">
<path d="M8498 22245 c-3 -3 -47 -7 -99 -10 -174 -8 -297 -18 -369 -30 -14 -2
-47 -7 -75 -10 -90 -10 -359 -52 -450 -70 -59 -12 -70 -14 -95 -20 -14 -3 -36
-7 -50 -10 -14 -3 -70 -16 -125 -30 -55 -14 -109 -27 -120 -30 -21 -5 -139
-38 -265 -75 -41 -12 -77 -26 -78 -31 -2 -5 -7 -7 -12 -4 -7 4 -51 -7 -95 -25
-46 -19 -85 -32 -92 -32 -4 0 -12 -3 -18 -8 -5 -4 -34 -15 -64 -25 -29 -9 -65
-24 -80 -31 -14 -8 -34 -14 -43 -14 -10 0 -18 -4 -18 -10 0 -5 -8 -10 -18 -10
-10 0 -22 -3 -26 -7 -4 -5 -11 -8 -14 -9 -16 -2 -162 -65 -291 -125 -57 -27
-107 -49 -111 -49 -5 0 -10 -5 -12 -11 -2 -5 -10 -11 -18 -13 -23 -4 -124 -57
-132 -70 -4 -6 -8 -8 -8 -4 0 4 -23 -6 -50 -22 -28 -17 -53 -30 -55 -30 -2 0
-45 -25 -96 -55 -50 -30 -94 -55 -96 -55 -2 0 -24 -13 -48 -30 -24 -16 -48
-30 -53 -30 -6 0 -12 -3 -14 -7 -1 -5 -55 -43 -118 -85 -163 -109 -234 -160
-238 -170 -2 -4 -8 -8 -14 -8 -9 0 -36 -20 -108 -81 -14 -12 -42 -33 -62 -47
-21 -13 -38 -29 -38 -33 0 -5 -6 -9 -13 -9 -7 0 -19 -9 -27 -20 -8 -11 -18
-20 -23 -20 -4 0 -21 -13 -37 -30 -16 -16 -32 -30 -35 -30 -3 0 -23 -17 -44
-37 -22 -21 -62 -56 -88 -78 -97 -81 -475 -465 -580 -590 -23 -28 -54 -63 -68
-80 -14 -16 -62 -77 -107 -135 -45 -58 -88 -111 -97 -117 -8 -7 -11 -13 -6
-13 5 0 -3 -12 -17 -27 -14 -16 -61 -80 -104 -143 -43 -63 -82 -119 -87 -125
-18 -22 -177 -287 -237 -395 -36 -63 -69 -118 -75 -122 -5 -4 -6 -8 -1 -8 5 0
4 -6 -2 -13 -12 -14 -123 -235 -172 -342 -42 -92 -130 -299 -136 -320 -1 -5
-17 -46 -34 -90 -30 -75 -140 -409 -160 -485 -5 -19 -17 -62 -26 -95 -9 -33
-17 -67 -19 -75 -2 -8 -11 -44 -20 -80 -9 -36 -19 -74 -21 -85 -2 -11 -13 -60
-24 -110 -20 -92 -28 -131 -35 -175 -2 -14 -6 -41 -10 -60 -3 -19 -8 -48 -11
-65 -3 -16 -7 -37 -9 -45 -2 -8 -7 -42 -11 -75 -3 -33 -8 -68 -10 -78 -2 -10
-6 -45 -9 -78 -4 -33 -8 -70 -10 -81 -3 -12 -7 -60 -10 -107 -3 -47 -9 -129
-14 -181 -8 -97 -6 -720 3 -820 3 -30 8 -89 11 -130 3 -41 7 -84 9 -95 2 -11
7 -51 11 -90 4 -38 9 -83 11 -100 2 -16 6 -48 9 -70 2 -22 7 -51 10 -65 3 -14
7 -41 10 -60 8 -65 15 -105 41 -225 13 -66 27 -131 30 -145 3 -14 9 -41 14
-60 5 -19 11 -46 14 -60 8 -40 72 -276 84 -310 3 -8 6 -20 7 -26 2 -7 17 -56
35 -110 18 -55 33 -106 35 -114 3 -13 38 -107 65 -175 16 -39 35 -90 35 -95 1
-3 9 -23 19 -45 10 -22 40 -94 68 -159 66 -158 233 -495 265 -536 6 -8 12 -19
13 -25 1 -5 17 -36 36 -68 19 -32 34 -62 34 -68 0 -5 5 -9 10 -9 6 0 10 -5 10
-11 0 -6 16 -36 37 -67 56 -88 78 -124 104 -167 12 -22 26 -42 30 -45 3 -3 37
-50 74 -105 65 -96 173 -245 185 -255 3 -3 28 -34 55 -70 73 -95 221 -267 354
-410 102 -109 7506 -7516 7636 -7638 63 -59 151 -132 159 -132 4 0 16 -8 26
-18 11 -10 36 -27 57 -39 21 -11 64 -35 97 -53 129 -72 346 -145 486 -165 19
-3 51 -8 70 -11 52 -9 340 -11 380 -3 19 4 60 11 90 14 30 4 58 9 61 11 3 2
20 6 37 9 18 3 54 13 80 21 26 9 52 17 57 19 6 1 23 7 38 14 16 6 33 9 38 5 5
-3 9 -1 9 5 0 5 17 15 38 21 45 15 206 99 210 111 2 5 8 9 13 9 10 0 87 51
152 102 95 74 247 235 310 328 9 14 29 43 45 65 58 84 165 314 188 410 3 11 6
25 8 30 39 136 55 272 53 451 l-2 172 25 -5 c14 -3 86 -5 160 -5 153 -1 203 5
355 37 39 8 73 15 78 15 4 0 20 6 36 14 16 9 31 13 34 10 3 -3 25 3 49 14 66
29 82 35 91 34 4 -1 7 3 7 8 0 5 3 10 8 9 15 -2 52 14 52 22 0 5 3 8 8 7 4 -1
17 3 30 10 12 7 22 9 22 5 0 -4 5 0 11 10 5 9 15 17 21 17 5 0 30 14 55 30 24
17 48 30 54 30 5 0 9 5 9 10 0 6 7 10 15 10 8 0 15 4 15 8 0 5 21 24 48 43 83
59 301 289 310 325 2 8 7 14 11 14 4 0 18 19 31 43 13 23 27 44 31 47 14 10
127 256 147 320 46 146 62 222 77 370 7 60 6 237 -1 288 l-6 50 33 -5 c102
-14 305 -8 419 11 263 45 509 152 725 315 91 69 252 236 328 342 97 135 207
366 242 509 41 165 50 244 50 453 l0 168 40 -7 c84 -14 296 -6 430 17 33 6 69
12 80 14 11 1 27 5 35 8 8 3 49 16 90 28 99 29 290 114 298 132 2 4 9 7 15 7
6 0 47 25 91 55 77 51 99 69 171 131 41 36 2130 2121 2230 2226 109 114 180
191 245 268 30 36 57 67 61 70 3 3 33 39 66 82 33 42 66 82 72 90 6 7 38 49
71 93 33 44 63 85 68 90 19 24 118 167 176 255 170 258 352 587 472 858 36 81
72 161 79 177 79 173 257 701 290 858 2 10 7 27 10 37 3 10 8 27 10 37 2 10
17 79 33 153 30 134 65 322 77 410 3 25 8 52 10 60 2 8 6 44 10 80 3 36 8 76
10 90 3 14 7 54 11 90 3 36 7 79 9 95 27 254 27 928 0 1155 -2 19 -7 64 -11
100 -16 154 -23 211 -35 290 -22 146 -38 229 -74 395 -15 66 -28 129 -30 140
-2 11 -13 56 -25 100 -12 44 -23 87 -25 95 -31 129 -187 593 -207 618 -6 6 -8
12 -5 12 4 0 -10 37 -29 83 -20 45 -37 87 -39 92 -4 17 -34 86 -72 165 -68
143 -168 345 -173 350 -5 5 -65 118 -84 157 -6 13 -14 23 -18 23 -5 0 -8 5 -8
10 0 6 -40 74 -88 153 -49 78 -95 153 -103 167 -8 14 -17 27 -20 30 -3 3 -22
30 -42 60 -20 30 -40 60 -45 65 -4 6 -19 26 -32 45 -13 19 -30 41 -37 48 -7 7
-13 16 -13 20 0 4 -10 19 -23 34 -13 15 -32 39 -43 53 -46 64 -116 150 -125
153 -5 2 -9 8 -9 13 0 8 -15 27 -65 83 -11 13 -45 52 -75 87 -157 183 -493
519 -655 654 -26 22 -57 48 -69 58 -11 10 -34 28 -49 40 -16 12 -34 27 -40 32
-7 6 -41 33 -77 60 -36 27 -76 60 -90 72 -14 13 -28 23 -32 23 -3 0 -13 6 -20
13 -29 28 -156 117 -167 117 -6 0 -11 4 -11 10 0 5 -15 17 -32 26 -18 9 -35
20 -38 24 -6 9 -327 209 -354 221 -12 5 -43 23 -71 39 -27 17 -57 34 -65 37
-8 4 -17 9 -20 12 -8 10 -136 71 -148 71 -6 0 -12 5 -14 11 -2 5 -10 11 -19
12 -8 2 -32 13 -52 25 -21 12 -40 22 -42 22 -3 0 -42 18 -87 39 -46 21 -117
53 -158 71 -41 18 -88 38 -105 46 -16 7 -68 27 -115 44 -47 17 -94 35 -105 40
-11 4 -33 13 -50 18 -16 6 -39 14 -50 18 -11 4 -22 8 -25 9 -7 2 -238 74 -280
88 -19 6 -39 12 -45 13 -5 1 -55 14 -110 29 -55 14 -108 28 -119 30 -22 5
-185 43 -241 55 -38 9 -147 29 -190 35 -33 4 -99 15 -125 20 -14 3 -45 7 -70
10 -25 3 -61 8 -80 11 -91 12 -118 16 -160 19 -25 2 -75 6 -113 10 -141 14
-242 17 -557 18 -345 0 -459 -5 -670 -29 -30 -4 -66 -8 -80 -10 -62 -6 -162
-20 -225 -30 -16 -3 -46 -7 -65 -9 -19 -3 -46 -7 -60 -10 -49 -10 -136 -26
-165 -31 -75 -13 -353 -80 -475 -115 -74 -22 -144 -42 -154 -44 -11 -3 -49
-14 -85 -26 -36 -12 -67 -22 -68 -21 -2 1 -23 -7 -48 -18 -25 -11 -45 -17 -45
-14 0 2 -19 -5 -42 -17 -24 -12 -45 -22 -48 -22 -3 0 -15 -3 -28 -8 -13 -5
-30 -9 -38 -9 -8 0 -14 -4 -14 -9 0 -5 -13 -11 -29 -14 -15 -3 -55 -18 -87
-32 -32 -14 -68 -30 -79 -34 -11 -5 -40 -17 -65 -27 -25 -10 -47 -21 -50 -24
-3 -3 -14 -7 -25 -8 -11 -2 -22 -7 -25 -11 -3 -4 -31 -18 -62 -30 -32 -13 -58
-28 -58 -33 0 -5 -3 -7 -8 -5 -4 3 -57 -21 -117 -53 -61 -32 -141 -75 -180
-96 -38 -20 -82 -45 -97 -55 -14 -11 -29 -19 -34 -19 -4 0 -31 -16 -60 -35
-29 -19 -57 -35 -63 -35 -6 0 -11 -4 -11 -10 0 -5 -6 -10 -13 -10 -7 0 -22 -7
-32 -15 -28 -22 -186 -125 -192 -125 -2 0 -11 -6 -18 -12 -30 -27 -44 -38 -49
-38 -3 0 -14 -6 -23 -14 -10 -8 -94 -71 -186 -140 l-168 -126 -96 72 c-77 59
-281 208 -353 258 -45 31 -214 140 -218 140 -2 0 -16 8 -30 19 -15 10 -43 28
-63 39 -76 42 -84 47 -89 52 -3 3 -34 20 -70 39 -36 18 -71 38 -79 44 -7 6
-20 12 -28 13 -7 1 -21 8 -30 15 -8 7 -22 14 -31 16 -9 1 -18 7 -20 12 -2 6
-9 11 -15 11 -10 0 -79 33 -142 67 -11 6 -38 19 -60 29 -22 9 -62 27 -89 40
-28 13 -56 24 -63 24 -7 0 -13 5 -13 11 0 5 -4 7 -10 4 -5 -3 -10 -1 -10 4 0
6 -3 10 -8 9 -4 -2 -28 5 -52 16 -94 39 -106 44 -129 51 -13 4 -40 14 -60 23
-64 27 -371 131 -371 125 0 -3 -6 -1 -12 4 -7 6 -35 16 -63 22 -27 7 -85 24
-127 37 -43 14 -82 23 -87 20 -5 -4 -12 -2 -15 3 -3 5 -20 12 -38 15 -41 8
-73 15 -95 21 -20 5 -136 31 -174 39 -111 22 -132 25 -139 21 -5 -3 -10 -1
-12 5 -1 5 -25 12 -53 15 -27 2 -63 7 -80 10 -113 21 -156 28 -200 30 -27 2
-61 6 -75 9 -43 9 -179 21 -344 30 -54 2 -100 7 -103 10 -3 3 -14 1 -24 -4
-10 -6 -20 -6 -23 -1 -8 12 -475 11 -482 -1 -4 -6 -9 -6 -13 1 -4 6 -10 9 -13
6z m512 -699 c157 -7 345 -20 345 -26 0 0 25 -3 55 -5 30 -2 69 -6 85 -9 17
-3 53 -8 80 -12 28 -3 59 -8 70 -10 11 -2 61 -11 110 -20 50 -8 99 -17 110
-19 11 -2 34 -7 50 -10 42 -8 186 -42 279 -66 43 -11 87 -22 97 -24 11 -2 23
-6 27 -9 5 -3 19 -7 33 -9 25 -5 294 -94 364 -120 22 -9 77 -29 122 -46 46
-17 107 -42 137 -56 30 -14 57 -25 60 -25 5 0 140 -62 246 -113 25 -12 48 -26
52 -32 4 -5 8 -6 8 -2 0 5 15 0 33 -11 17 -11 61 -36 97 -54 36 -19 83 -45
105 -58 22 -13 51 -30 65 -37 14 -8 39 -23 55 -33 17 -11 47 -28 67 -40 20
-11 40 -24 43 -30 4 -6 10 -8 14 -5 5 2 16 -4 26 -15 10 -11 23 -20 29 -20 6
0 23 -10 37 -22 14 -13 32 -27 41 -33 62 -40 111 -75 165 -114 33 -25 73 -55
89 -66 15 -11 37 -27 48 -36 20 -16 -44 -81 -2259 -2297 -1254 -1253 -2298
-2299 -2320 -2324 -67 -74 -81 -93 -117 -154 -106 -183 -138 -308 -134 -519 3
-108 9 -157 26 -215 12 -41 23 -82 25 -90 2 -8 18 -46 36 -85 18 -38 33 -72
33 -75 1 -3 9 -16 17 -30 9 -14 31 -50 50 -80 18 -30 36 -57 39 -60 4 -3 25
-30 47 -60 66 -90 220 -241 319 -312 24 -17 44 -35 44 -40 0 -5 4 -7 8 -4 5 3
18 -2 28 -12 36 -33 166 -112 227 -138 20 -9 37 -20 37 -25 0 -5 3 -8 8 -7 4
1 32 -10 62 -24 106 -50 170 -77 170 -71 0 3 6 1 13 -5 17 -14 242 -86 297
-96 8 -1 40 -8 70 -14 30 -6 69 -13 85 -16 17 -3 40 -7 53 -10 145 -32 594
-27 777 9 122 24 359 94 445 132 89 38 265 127 268 135 2 4 8 8 13 8 12 0 199
119 224 144 11 10 32 26 46 35 66 41 213 184 1079 1049 509 508 929 923 933
923 5 1 27 -17 50 -38 23 -21 71 -63 107 -93 36 -30 67 -57 70 -60 3 -3 21
-17 40 -30 19 -14 44 -33 55 -43 11 -10 32 -26 48 -35 15 -9 27 -20 27 -24 0
-4 7 -8 15 -8 8 0 15 -4 15 -8 0 -4 37 -33 82 -63 45 -29 87 -60 94 -66 7 -7
16 -13 21 -13 4 0 26 -14 47 -30 22 -17 46 -30 53 -30 7 0 13 -4 13 -9 0 -5
14 -14 30 -21 17 -7 30 -15 30 -19 0 -4 12 -12 28 -19 15 -6 54 -27 87 -46 71
-42 304 -157 308 -154 2 2 14 -4 27 -13 29 -18 195 -84 223 -88 4 0 20 -7 37
-16 16 -8 37 -17 47 -18 10 -2 25 -6 33 -9 55 -20 247 -72 304 -82 21 -4 511
-488 2060 -2036 1117 -1117 2045 -2052 2063 -2078 79 -119 124 -214 147 -316
53 -228 31 -434 -67 -636 -23 -47 -44 -87 -47 -90 -3 -3 -16 -21 -30 -40 -44
-63 -81 -103 -151 -163 -66 -56 -67 -57 -79 -57 -5 0 -10 -4 -10 -9 0 -5 -12
-14 -27 -20 -16 -6 -48 -23 -73 -37 -102 -58 -258 -95 -409 -95 -103 0 -142 5
-245 33 -69 18 -261 106 -276 126 -3 4 -23 20 -45 36 -22 17 -886 875 -1919
1908 -1140 1139 -1895 1887 -1921 1902 -23 13 -55 27 -71 31 -35 10 -165 15
-179 6 -5 -3 -18 -7 -28 -8 -28 -5 -119 -67 -152 -104 -104 -117 -111 -317
-15 -429 11 -14 869 -874 1905 -1911 1037 -1037 1885 -1890 1885 -1895 0 -6 9
-20 20 -31 30 -33 94 -160 123 -245 38 -112 50 -205 44 -343 -6 -122 -33 -242
-73 -317 -9 -18 -21 -41 -26 -51 -56 -112 -63 -121 -163 -223 -86 -86 -131
-121 -215 -165 -222 -117 -442 -141 -695 -76 -44 12 -145 52 -145 59 0 4 -6 8
-14 8 -7 0 -49 23 -92 51 -66 43 -387 359 -1974 1944 -1056 1054 -1911 1901
-1930 1911 -243 121 -518 -52 -506 -319 7 -152 -158 24 1940 -2072 1153 -1152
1900 -1906 1929 -1946 51 -72 117 -195 117 -219 0 -9 4 -20 9 -25 6 -6 12 -21
15 -35 3 -14 7 -34 10 -45 2 -11 9 -39 14 -61 21 -93 11 -277 -23 -419 -2 -11
-7 -24 -42 -109 -58 -141 -182 -293 -313 -383 -56 -38 -200 -115 -200 -107 0
4 -7 1 -15 -6 -8 -7 -15 -9 -15 -6 0 4 -6 4 -12 -1 -7 -4 -22 -9 -33 -10 -11
-2 -27 -6 -35 -10 -69 -29 -282 -34 -400 -9 -90 19 -92 20 -105 27 -5 4 -28
12 -50 19 -22 7 -59 23 -82 36 -24 13 -43 20 -43 16 0 -4 -5 1 -11 10 -5 10
-15 18 -21 18 -5 0 -33 18 -62 40 -28 23 -897 886 -1931 1919 -1924 1922
-1915 1914 -2010 1937 -45 10 -137 11 -158 1 -10 -4 -27 -10 -39 -12 -60 -12
-162 -101 -192 -168 -33 -73 -46 -159 -33 -217 11 -47 23 -78 41 -110 11 -19
863 -879 1894 -1910 1031 -1031 1899 -1906 1927 -1945 54 -72 112 -180 135
-250 7 -22 13 -41 12 -42 0 -2 6 -26 15 -55 23 -83 25 -296 4 -393 -10 -44
-21 -87 -24 -95 -21 -51 -30 -76 -31 -80 -1 -3 -24 -46 -51 -95 -38 -69 -74
-114 -152 -193 -57 -56 -107 -102 -112 -102 -5 0 -16 -6 -23 -13 -7 -7 -29
-21 -48 -30 -19 -10 -42 -21 -50 -26 -52 -29 -80 -41 -80 -36 0 3 -12 -1 -27
-8 -99 -50 -323 -67 -473 -37 -47 10 -88 16 -92 13 -5 -2 -8 0 -8 5 0 5 -19
14 -42 21 -24 7 -53 19 -66 27 -12 8 -27 12 -32 9 -6 -3 -10 -2 -10 2 0 5 -26
23 -59 41 -32 17 -85 56 -117 85 -77 69 -7512 7503 -7629 7629 -105 113 -123
132 -195 218 -30 36 -63 71 -73 78 -9 7 -17 18 -17 23 0 6 -6 16 -13 23 -6 7
-21 25 -32 41 -11 15 -27 36 -35 45 -8 9 -19 24 -25 32 -5 8 -62 88 -125 177
-125 176 -190 275 -190 291 0 5 -4 10 -8 10 -5 0 -19 19 -31 43 -13 23 -36 65
-51 92 -15 28 -40 73 -57 100 -74 126 -234 468 -308 660 -45 119 -47 124 -47
132 0 4 -3 13 -8 18 -4 6 -13 28 -19 50 -7 22 -16 49 -20 60 -56 140 -175 604
-207 805 -3 19 -7 46 -10 60 -2 14 -7 41 -9 60 -3 19 -7 44 -10 55 -2 11 -7
43 -10 70 -3 28 -8 64 -10 80 -12 90 -18 161 -31 330 -10 124 -10 640 0 755 3
47 9 112 12 145 2 33 9 94 14 135 5 41 12 98 15 125 3 28 7 61 10 75 3 14 7
41 10 60 3 19 8 42 10 50 2 8 6 35 9 60 16 120 118 525 187 740 34 109 49 150
85 245 4 11 8 22 9 25 21 84 249 578 339 735 19 33 47 83 62 110 14 28 46 79
69 115 23 36 66 103 95 150 30 47 57 87 60 90 8 7 100 140 100 145 0 2 9 14
20 27 11 12 50 61 86 108 97 125 125 159 162 197 17 18 32 36 32 38 0 26 379
408 555 562 91 78 100 86 141 118 21 17 53 42 70 58 17 15 35 27 38 27 4 0 17
9 29 21 35 32 193 147 297 216 52 34 100 67 107 73 7 5 24 15 38 22 14 6 25
15 25 20 0 4 4 8 9 8 9 0 131 69 141 80 3 3 19 12 35 20 17 8 32 17 35 20 3 3
32 20 65 37 33 16 107 55 165 85 87 45 241 117 260 123 3 0 27 11 54 23 27 12
50 22 53 22 6 0 95 39 117 51 10 6 30 13 44 15 15 3 31 9 38 15 6 5 23 10 38
11 14 1 26 6 26 10 0 4 8 8 18 8 10 0 22 3 26 8 4 4 11 7 14 7 4 1 45 14 92
29 89 30 233 74 263 82 9 2 25 6 35 8 9 2 53 14 97 25 44 12 91 24 105 26 14
3 36 8 50 11 29 7 55 12 90 19 14 3 36 7 50 10 14 3 66 12 115 20 50 8 99 17
110 19 11 2 43 7 70 10 28 3 66 9 85 11 131 20 286 33 490 41 80 3 146 7 147
7 3 3 206 -1 353 -7z m8200 0 c168 -12 226 -18 255 -23 17 -3 46 -6 65 -8 72
-6 148 -16 255 -35 61 -11 128 -22 150 -25 22 -3 54 -10 70 -15 17 -5 57 -14
90 -21 33 -7 65 -14 70 -15 6 -2 26 -6 45 -10 19 -3 40 -10 46 -15 6 -5 13 -6
16 -4 3 3 18 0 34 -6 16 -7 36 -13 44 -14 30 -4 271 -76 310 -93 8 -3 20 -7
25 -7 6 -1 23 -7 38 -13 16 -7 33 -12 38 -12 5 0 17 -4 27 -9 27 -15 195 -77
215 -80 4 0 22 -8 40 -18 17 -9 34 -18 37 -18 3 0 23 -9 45 -19 22 -10 49 -22
60 -26 50 -21 384 -186 415 -205 19 -12 60 -35 90 -52 91 -50 135 -77 138 -85
2 -4 8 -8 12 -8 18 0 435 -281 460 -309 3 -4 21 -18 42 -33 20 -15 42 -33 50
-40 7 -7 29 -25 50 -40 20 -15 42 -33 50 -40 7 -7 63 -56 123 -108 172 -148
329 -302 515 -506 106 -116 382 -468 427 -544 9 -17 21 -30 25 -30 4 0 8 -4 8
-9 0 -7 77 -131 97 -156 5 -5 22 -32 38 -59 17 -28 42 -70 58 -95 15 -25 42
-73 59 -106 18 -33 37 -68 43 -77 14 -23 187 -362 186 -365 0 -2 11 -29 25
-60 14 -32 46 -110 71 -173 25 -63 49 -124 54 -135 50 -114 157 -475 210 -705
35 -155 47 -216 64 -320 3 -19 8 -46 10 -60 3 -14 7 -38 9 -55 2 -16 7 -46 10
-65 3 -19 8 -56 11 -82 3 -27 7 -67 10 -90 7 -52 12 -111 22 -238 9 -119 9
-656 0 -770 -4 -47 -9 -112 -11 -145 -8 -95 -35 -313 -51 -400 -8 -44 -17 -96
-20 -115 -12 -81 -70 -343 -97 -440 -16 -58 -31 -112 -33 -120 -17 -67 -118
-373 -141 -425 -10 -22 -19 -49 -21 -59 -2 -11 -7 -24 -12 -30 -5 -6 -14 -29
-21 -50 -7 -22 -26 -65 -41 -97 -16 -32 -29 -61 -29 -64 0 -3 -21 -49 -47
-103 -25 -53 -45 -99 -44 -101 2 -2 -1 -7 -6 -10 -4 -3 -33 -55 -63 -115 -30
-61 -64 -124 -75 -140 -11 -17 -27 -44 -35 -61 -39 -78 -270 -441 -290 -455
-4 -3 -18 -23 -32 -45 -27 -43 -114 -156 -228 -295 -24 -30 -55 -65 -67 -77
-13 -12 -23 -24 -23 -27 0 -28 -1406 -1444 -1419 -1430 -4 5 -14 36 -21 69
-17 74 -17 74 -20 80 -3 5 -3 6 -15 50 -11 41 -52 142 -75 185 -10 19 -19 38
-19 43 -1 21 -125 217 -189 297 -15 19 -830 839 -1812 1822 -982 984 -1786
1790 -1788 1792 -3 3 110 31 168 42 33 7 227 66 255 79 17 8 66 28 110 46 77
31 305 145 315 158 3 3 19 13 35 21 17 8 32 17 35 20 3 3 33 23 67 45 35 22
63 43 63 48 0 4 7 7 15 7 8 0 15 5 15 10 0 6 6 10 14 10 8 0 16 4 18 8 2 6 36
34 93 74 22 16 155 134 256 228 42 39 97 126 110 173 15 55 14 147 -2 194 -7
21 -13 40 -14 43 0 3 -17 29 -39 58 -82 112 -208 162 -346 137 -56 -10 -128
-51 -183 -104 -29 -27 -65 -61 -82 -76 -16 -15 -46 -41 -65 -58 -54 -48 -128
-107 -135 -107 -3 0 -18 -11 -33 -25 -15 -14 -32 -25 -39 -25 -7 0 -13 -4 -13
-8 0 -5 -19 -19 -42 -32 -24 -12 -50 -29 -58 -36 -31 -26 -248 -132 -325 -159
-44 -15 -84 -31 -90 -35 -5 -4 -28 -11 -50 -15 -48 -10 -45 -9 -70 -18 -11 -3
-31 -8 -45 -11 -14 -2 -36 -7 -50 -10 -69 -17 -226 -30 -355 -29 -95 1 -260 9
-260 13 0 2 -24 7 -70 14 -22 3 -51 8 -65 11 -14 3 -34 7 -45 9 -35 7 -149 37
-165 43 -8 3 -17 7 -20 8 -209 63 -491 191 -655 296 -16 10 -37 22 -45 26 -8
4 -55 34 -104 67 -48 34 -96 66 -105 71 -9 6 -18 12 -21 16 -3 3 -27 21 -55
40 -57 39 -60 42 -140 106 -63 50 -83 67 -118 96 -41 34 -180 161 -261 238
-164 156 -199 174 -331 174 -163 0 -74 79 -1226 -1073 -1069 -1069 -1097
-1097 -1169 -1152 -25 -19 -46 -38 -48 -42 -2 -5 -10 -8 -17 -8 -7 0 -15 -3
-17 -7 -4 -11 -85 -63 -97 -63 -5 0 -11 -4 -13 -9 -6 -17 -246 -135 -298 -146
-8 -2 -35 -11 -60 -20 -51 -18 -204 -56 -217 -54 -4 2 -24 -1 -43 -4 -92 -18
-259 -23 -360 -12 -92 10 -136 16 -155 20 -11 3 -31 7 -45 10 -106 21 -207 50
-298 87 -81 32 -228 107 -274 139 -14 11 -29 19 -33 19 -4 0 -20 10 -35 23
-15 12 -43 33 -62 47 -65 48 -198 189 -241 257 -51 79 -59 100 -74 195 -6 42
14 136 34 156 7 7 13 19 13 25 0 11 4640 4653 4786 4787 66 61 140 126 238
210 22 19 46 40 53 47 7 6 28 21 48 33 19 12 35 26 35 31 0 5 6 9 14 9 8 0 16
3 18 8 4 10 81 69 158 122 36 24 67 47 70 50 7 9 230 153 263 169 15 8 27 18
27 23 0 5 5 6 10 3 6 -3 10 -2 10 2 0 5 26 22 58 37 31 16 64 34 72 41 31 26
250 140 259 135 2 -1 7 2 10 7 6 8 54 31 236 113 39 18 122 52 185 77 63 24
129 51 145 58 32 14 351 118 400 130 17 5 35 9 40 11 64 18 256 66 275 69 14
2 25 4 25 5 0 2 19 6 64 15 19 3 38 8 42 10 4 3 24 7 45 10 22 3 50 7 64 10
13 2 40 7 60 10 20 3 47 7 60 10 14 3 36 7 50 9 14 3 54 8 90 12 36 3 67 7 70
9 5 3 77 10 210 21 30 2 102 7 160 10 58 4 106 7 107 8 5 5 520 -3 593 -8z"/>
<path d="M23336 839 c3 -5 14 -7 24 -6 31 5 31 12 -1 13 -16 1 -26 -2 -23 -7z"/>
<path d="M25553 3 c9 -2 23 -2 30 0 6 3 -1 5 -18 5 -16 0 -22 -2 -12 -5z"/>
</g>
</svg>
